<svg xmlns="http://www.w3.org/2000/svg" width="27" height="27" viewBox="0 0 27 27">
  <g fill="#E91C41">
    <path d="M17.1255157,7 C19.7384234,7 20.5088546,10.0483848 19.7384234,11.5558993 C18.9679923,13.0632725 17.2190811,14.8096487 15.9419548,15.9553371 C14.7805839,16.982584 13.1057336,17.9876407 10.9952809,15.877177 C10.8978993,15.7974622 10.78596,15.6995147 10.6675191,15.592663 L12.2218084,13.9828195 C12.2418784,13.9996388 12.2670364,14.0249384 12.2855517,14.0393549 C13.2292627,14.9830708 13.7168773,14.9921165 14.6622844,14.0465631 C15.3686896,13.3460904 16.7523844,11.851155 17.3532105,11.1314603 C17.9369347,10.4322597 18.2627178,8.93350817 15.639351,8.93350817 L11.5015521,8.93350817 C9.75405432,8.93350817 8.85133122,9.84740173 9.76663337,11.1314603 C9.82853923,11.2096204 9.89779464,11.2965435 9.965354,11.3816292 L8.31170435,13.1012925 C7.91496977,12.6111312 7.59455749,12.1561631 7.44445698,11.8238768 C6.37241146,9.71341301 7.27697195,7 9.75589171,7 L17.1255157,7 Z M9.89727169,20.199331 C7.28436391,20.199331 6.51393277,17.1509462 7.28436391,15.6434317 C8.05479504,14.1360585 9.80370622,12.3896823 11.0808326,11.2439939 C12.2422034,10.216747 13.9170537,9.21169025 16.0275064,11.322154 C16.124888,11.4018688 16.2368274,11.4998163 16.3552683,11.606668 L14.8009789,13.2165115 C14.780909,13.1996922 14.7557509,13.1743926 14.7372357,13.1599761 C13.7935247,12.2162602 13.30591,12.2072145 12.360503,13.1527679 C11.6540978,13.8532406 10.2704029,15.348176 9.66957686,16.0678707 C9.08585266,16.7670713 8.76006955,18.2658228 11.3834363,18.2658228 L15.5212352,18.2658228 C17.268733,18.2658228 18.1714561,17.3519293 17.256154,16.0678707 C17.1942481,15.9897106 17.1249927,15.9027875 17.0574333,15.8177018 L18.711083,14.0980385 C19.1078176,14.5881998 19.4282299,15.0431679 19.5783304,15.3754542 C20.6503759,17.485918 19.7458154,20.199331 17.2668956,20.199331 L9.89727169,20.199331 Z"/>
    <path d="M13.5,2.17745811 C7.24680158,2.17745811 2.17744671,7.24669818 2.17744671,13.5000707 C2.17744671,19.7533018 7.24680158,24.8226832 13.5,24.8226832 C19.7531984,24.8226832 24.8225533,19.7533018 24.8225533,13.5000707 C24.8225533,7.24669818 19.7531984,2.17745811 13.5,2.17745811 M13.5,27 C6.04416014,27 0,20.9559496 0,13.5000707 C0,6.04419178 6.04416014,-1.77635684e-15 13.5,-1.77635684e-15 C20.9558399,-1.77635684e-15 27,6.04419178 27,13.5000707 C27,20.9559496 20.9558399,27 13.5,27" transform="matrix(1 0 0 -1 0 27)"/>
  </g>
</svg>
